<?xml version="1.0" standalone="no"?>
<!DOCTYPE svg PUBLIC "-//W3C//DTD SVG 20010904//EN"
 "http://www.w3.org/TR/2001/REC-SVG-20010904/DTD/svg10.dtd">
<svg version="1.0" xmlns="http://www.w3.org/2000/svg"
 width="944.000000pt" height="557.000000pt" viewBox="0 0 944.000000 557.000000"
 preserveAspectRatio="xMidYMid meet">

<g transform="translate(0.000000,557.000000) scale(0.100000,-0.100000)"
fill="#000000" stroke="none">
<path d="M742 4285 c2 -88 7 -145 13 -145 6 0 11 57 13 145 2 126 0 145 -13
145 -13 0 -15 -19 -13 -145z"/>
<path d="M862 4283 c2 -106 6 -147 16 -151 9 -3 12 31 12 147 0 129 -2 151
-15 151 -13 0 -15 -21 -13 -147z"/>
<path d="M680 4260 c0 -117 3 -151 13 -147 9 3 12 41 12 147 0 106 -3 144 -12
148 -10 3 -13 -31 -13 -148z"/>
<path d="M804 4397 c-2 -7 -3 -73 -2 -147 2 -96 7 -135 16 -138 9 -3 12 31 12
147 0 97 -4 151 -10 151 -6 0 -13 -6 -16 -13z"/>
<path d="M930 4260 c0 -93 4 -150 10 -150 6 0 10 57 10 150 0 93 -4 150 -10
150 -6 0 -10 -57 -10 -150z"/>
<path d="M1513 4255 c0 -38 2 -53 4 -32 2 20 2 52 0 70 -2 17 -4 1 -4 -38z"/>
<path d="M1620 4276 c0 -25 5 -46 10 -46 6 0 10 18 10 39 0 22 -4 43 -10 46
-6 4 -10 -12 -10 -39z"/>
<path d="M1042 4248 c1 -55 2 -57 6 -18 l4 45 23 -45 22 -44 21 39 21 40 1
-32 c0 -17 5 -35 10 -38 6 -4 10 17 10 54 0 34 -4 61 -10 61 -5 0 -19 -21 -31
-47 l-21 -48 -22 47 c-11 26 -24 48 -28 48 -5 0 -7 -28 -6 -62z"/>
<path d="M1553 4295 c-6 -7 -8 -16 -3 -21 5 -5 10 -25 12 -44 2 -26 8 -36 23
-38 19 -3 19 -2 3 11 -10 8 -18 26 -18 40 0 14 8 31 18 36 15 9 15 10 0 11 -9
0 -18 4 -20 9 -1 5 -8 3 -15 -4z"/>
<path d="M1196 4274 c-31 -30 -9 -84 34 -84 24 0 50 26 50 50 0 24 -26 50 -50
50 -10 0 -26 -7 -34 -16z m52 -6 c18 -18 15 -46 -6 -57 -33 -18 -58 29 -30 57
7 7 15 12 18 12 3 0 11 -5 18 -12z"/>
<path d="M1290 4286 c0 -14 41 -96 47 -96 10 0 45 91 38 98 -2 3 -13 -14 -23
-38 l-18 -43 -14 42 c-7 22 -17 41 -22 41 -4 0 -8 -2 -8 -4z"/>
<path d="M1404 4265 c-15 -23 -15 -27 0 -50 9 -14 23 -25 30 -25 22 0 46 11
46 21 0 6 -9 5 -21 -1 -15 -9 -24 -8 -35 1 -24 20 -16 29 26 29 43 0 49 9 24
34 -23 23 -51 20 -70 -9z m50 9 c27 -10 18 -24 -15 -24 -27 0 -30 2 -19 15 14
17 13 17 34 9z"/>
<path d="M1620 4200 c0 -5 5 -10 10 -10 6 0 10 5 10 10 0 6 -4 10 -10 10 -5 0
-10 -4 -10 -10z"/>
<path d="M5600 4026 c0 -36 5 -68 10 -71 6 -4 10 8 10 28 0 36 21 64 40 52 5
-3 10 -21 10 -40 0 -19 5 -37 11 -40 7 -5 9 9 7 42 -3 46 -4 48 -35 51 -25 2
-33 8 -33 23 0 10 -4 19 -10 19 -6 0 -10 -28 -10 -64z"/>
<path d="M5945 4078 c-10 -24 -1 -123 10 -121 14 4 19 113 6 126 -7 7 -12 5
-16 -5z"/>
<path d="M6064 4072 c-5 -16 -14 -22 -35 -22 -35 0 -56 -38 -39 -69 12 -23 26
-28 65 -26 29 2 30 3 33 60 3 60 -13 100 -24 57z m-6 -71 c-4 -35 -41 -37 -46
-2 -4 26 13 42 35 34 8 -3 13 -16 11 -32z"/>
<path d="M5120 4075 c0 -3 9 -23 20 -45 11 -22 20 -49 20 -60 0 -12 5 -18 10
-15 6 3 10 15 10 26 0 11 7 34 16 50 8 17 13 36 11 42 -2 7 -10 0 -17 -15 -16
-34 -24 -35 -38 -3 -10 22 -32 35 -32 20z"/>
<path d="M6200 4014 c0 -41 4 -63 10 -59 6 3 10 21 11 38 l1 32 11 -25 c26
-55 29 -55 53 -9 l23 44 1 -43 c0 -26 4 -41 10 -37 6 3 10 33 10 66 0 74 -18
79 -47 12 l-20 -48 -23 48 c-13 26 -28 47 -32 47 -4 0 -8 -30 -8 -66z"/>
<path d="M6680 4014 c0 -41 4 -63 10 -59 6 3 10 33 10 66 0 33 -4 59 -10 59
-6 0 -10 -29 -10 -66z"/>
<path d="M6722 4060 c-7 -12 -8 -21 -2 -25 6 -3 10 -21 10 -40 0 -31 24 -55
39 -39 3 4 0 9 -6 11 -14 5 -18 69 -4 75 4 2 1 11 -8 20 -16 16 -17 16 -29 -2z"/>
<path d="M6790 4041 c0 -22 5 -43 10 -46 6 -4 10 12 10 39 0 25 -4 46 -10 46
-5 0 -10 -18 -10 -39z"/>
<path d="M5242 4038 c-27 -27 -3 -88 34 -88 16 0 54 35 54 51 0 6 -5 19 -10
30 -12 22 -59 26 -78 7z m59 -19 c9 -17 8 -25 -4 -37 -19 -18 -47 -9 -47 16 0
18 18 42 32 42 4 0 12 -10 19 -21z"/>
<path d="M5350 4011 c0 -46 15 -61 55 -57 28 3 30 6 33 50 2 35 0 46 -12 46
-10 0 -16 -12 -18 -37 -2 -26 -8 -38 -18 -38 -10 0 -16 12 -18 38 -4 49 -22
48 -22 -2z"/>
<path d="M5507 4037 c-7 -19 4 -33 31 -41 12 -4 22 -12 22 -17 0 -12 -24 -11
-37 2 -8 8 -13 8 -17 0 -11 -18 40 -37 59 -21 22 19 18 39 -10 50 -14 5 -25
14 -25 20 0 13 13 13 28 -2 13 -13 27 -5 17 11 -9 16 -62 14 -68 -2z"/>
<path d="M5722 4038 c-20 -20 -14 -56 13 -74 23 -15 27 -15 50 0 44 29 28 86
-25 86 -14 0 -31 -5 -38 -12z m62 -21 c16 -25 -16 -56 -38 -37 -19 15 -20 32
-4 48 15 15 28 11 42 -11z"/>
<path d="M5830 4010 c0 -43 17 -59 60 -55 22 1 25 7 28 48 2 27 -1 47 -7 47
-5 0 -11 -17 -13 -37 -2 -30 -7 -38 -23 -38 -16 0 -21 8 -23 38 -4 49 -22 48
-22 -3z"/>
<path d="M6363 4043 c-22 -8 -16 -71 8 -84 44 -23 86 20 68 69 -8 21 -44 29
-76 15z m55 -42 c-4 -35 -41 -37 -46 -2 -4 26 13 42 35 34 8 -3 13 -16 11 -32z"/>
<path d="M6460 4040 c0 -19 32 -90 41 -90 6 0 19 21 29 46 23 53 24 57 8 52
-6 -2 -17 -20 -23 -39 l-12 -34 -12 38 c-11 34 -31 51 -31 27z"/>
<path d="M6572 4038 c-18 -18 -15 -53 6 -71 23 -21 33 -21 58 -2 18 15 17 16
-12 10 -23 -4 -33 -2 -37 9 -5 13 2 16 33 16 43 0 45 2 30 31 -12 22 -59 26
-78 7z m56 -16 c2 -7 -7 -12 -23 -12 -24 0 -26 2 -15 15 14 17 31 16 38 -3z"/>
<path d="M6106 3964 c-11 -28 -6 -39 9 -20 8 11 15 23 15 28 0 14 -18 9 -24
-8z"/>
<path d="M6792 3971 c4 -13 18 -16 19 -4 0 4 -5 9 -11 12 -7 2 -11 -2 -8 -8z"/>
<path d="M1170 3886 c0 -8 -8 -13 -17 -12 -13 1 -19 -7 -21 -26 -3 -25 0 -28
27 -28 29 0 31 2 31 40 0 22 -4 40 -10 40 -5 0 -10 -6 -10 -14z m0 -34 c0 -13
-12 -22 -22 -16 -10 6 -1 24 13 24 5 0 9 -4 9 -8z"/>
<path d="M1680 3891 c0 -5 -9 -11 -20 -14 -14 -3 -20 -14 -20 -31 0 -22 4 -26
30 -26 28 0 30 2 30 40 0 22 -4 40 -10 40 -5 0 -10 -4 -10 -9z m0 -39 c0 -13
-12 -22 -22 -16 -10 6 -1 24 13 24 5 0 9 -4 9 -8z"/>
<path d="M1869 3893 c-5 -30 -3 -73 4 -73 4 0 7 18 7 40 0 22 -2 40 -5 40 -3
0 -6 -3 -6 -7z"/>
<path d="M577 3884 c-9 -10 4 -34 19 -34 8 0 14 -4 14 -9 0 -5 -10 -7 -22 -3
-14 3 -19 2 -14 -6 10 -17 56 -15 56 2 0 7 -10 21 -22 30 l-23 17 23 -6 c12
-4 22 -2 22 4 0 12 -42 15 -53 5z"/>
<path d="M1288 3885 c-8 -9 6 -58 18 -62 5 -2 9 11 9 29 0 29 -14 46 -27 33z"/>
<path d="M1451 3881 c-8 -5 -20 -7 -28 -4 -9 4 -13 -4 -13 -26 0 -17 5 -31 10
-31 6 0 10 9 10 20 0 11 7 20 15 20 8 0 15 -9 15 -20 0 -11 6 -20 13 -20 14 0
17 62 2 67 -5 1 -16 -1 -24 -6z"/>
<path d="M1527 3883 c-9 -14 5 -63 17 -63 15 0 14 62 -1 67 -6 2 -13 0 -16 -4z"/>
<path d="M640 3850 c0 -16 5 -30 10 -30 6 0 10 14 10 30 0 17 -4 30 -10 30 -5
0 -10 -13 -10 -30z"/>
<path d="M679 3864 c-16 -19 -4 -44 21 -44 12 0 19 -4 15 -10 -3 -5 -12 -7
-20 -3 -8 3 -15 0 -15 -7 0 -6 11 -10 28 -8 24 3 27 8 30 44 3 39 1 42 -22 42
-14 0 -31 -7 -37 -14z m39 -15 c-2 -6 -8 -10 -13 -10 -5 0 -11 4 -13 10 -2 6
4 11 13 11 9 0 15 -5 13 -11z"/>
<path d="M750 3849 c0 -16 5 -29 10 -29 6 0 10 9 10 20 0 11 5 20 10 20 6 0
10 -9 10 -20 0 -11 5 -20 11 -20 6 0 9 12 7 27 -2 22 -9 28 -30 30 -25 2 -28
-2 -28 -28z"/>
<path d="M850 3850 c0 -16 5 -30 10 -30 6 0 10 14 10 30 0 17 -4 30 -10 30 -5
0 -10 -13 -10 -30z"/>
<path d="M880 3849 c0 -16 5 -29 10 -29 6 0 10 9 10 20 0 11 5 20 10 20 6 0
10 -9 10 -20 0 -11 5 -20 11 -20 6 0 9 12 7 27 -2 22 -9 28 -30 30 -25 2 -28
-2 -28 -28z"/>
<path d="M987 3873 c-4 -3 -7 -17 -7 -30 0 -19 5 -23 30 -23 27 0 30 3 30 30
0 25 -4 30 -23 30 -13 0 -27 -3 -30 -7z m33 -21 c0 -13 -12 -22 -22 -16 -10 6
-1 24 13 24 5 0 9 -4 9 -8z"/>
<path d="M1050 3849 c0 -16 5 -29 10 -29 6 0 10 9 10 20 0 27 27 25 33 -2 4
-16 5 -13 4 7 -2 25 -7 30 -29 32 -25 2 -28 -2 -28 -28z"/>
<path d="M1239 3878 c-1 -2 -3 -15 -5 -30 -2 -22 1 -28 16 -28 26 0 34 17 13
29 -10 6 -12 11 -5 11 17 0 15 20 -3 20 -8 0 -16 -1 -16 -2z"/>
<path d="M1334 3865 c-10 -25 4 -45 31 -45 21 0 25 5 25 28 0 22 -5 28 -25 30
-15 1 -28 -4 -31 -13z m38 -20 c0 -5 -5 -11 -11 -13 -6 -2 -11 4 -11 13 0 9 5
15 11 13 6 -2 11 -8 11 -13z"/>
<path d="M1577 3873 c-4 -3 -7 -17 -7 -30 0 -18 5 -23 25 -23 14 0 28 7 31 15
11 27 -30 58 -49 38z m33 -21 c0 -13 -12 -22 -22 -16 -10 6 -1 24 13 24 5 0 9
-4 9 -8z"/>
<path d="M1714 3865 c-10 -25 4 -45 31 -45 21 0 25 5 25 28 0 22 -5 28 -25 30
-15 1 -28 -4 -31 -13z m44 -17 c-6 -18 -28 -21 -28 -4 0 9 7 16 16 16 9 0 14
-5 12 -12z"/>
<path d="M1795 3851 c8 -17 12 -37 9 -45 -3 -9 -2 -16 2 -16 11 0 46 81 39 88
-3 3 -11 -3 -18 -13 -13 -16 -14 -16 -20 -1 -4 9 -11 16 -17 16 -6 0 -4 -12 5
-29z"/>
<path d="M6860 3831 c0 -28 -34 -41 -108 -41 -138 -1 -189 -26 -228 -112 -18
-39 -18 -41 4 -102 12 -33 22 -73 22 -88 0 -24 -2 -26 -27 -17 -232 74 -501
128 -683 136 -594 25 -1011 -275 -1126 -810 -22 -101 -29 -313 -15 -421 50
-370 273 -587 647 -628 86 -10 121 -9 223 5 67 10 129 21 139 26 54 27 102 29
184 5 83 -24 198 -32 198 -14 0 6 -28 10 -62 10 -35 0 -92 8 -127 18 l-64 18
76 36 c88 42 169 96 252 167 33 27 60 49 61 48 8 -7 -63 -187 -82 -210 -26
-31 -38 -65 -32 -94 3 -17 18 -18 197 -21 202 -3 223 1 214 39 -7 27 -24 34
-123 54 -91 18 -120 30 -120 46 0 6 30 60 66 120 36 60 93 168 126 240 55 118
60 135 56 182 -4 44 -13 63 -61 127 -55 73 -57 77 -57 137 0 35 4 63 10 63 6
0 10 -27 10 -60 0 -56 3 -65 41 -113 92 -115 100 -179 39 -306 -22 -45 -40
-84 -40 -85 0 -2 57 -6 128 -9 87 -4 172 -16 272 -37 304 -66 390 -38 436 140
23 90 15 312 -15 425 -72 271 -272 505 -564 661 -69 36 -85 49 -77 59 9 11 19
10 53 -6 62 -28 111 -25 137 8 11 15 18 33 15 41 -3 8 1 22 8 31 10 12 12 38
8 106 -6 89 -6 90 23 118 23 22 27 32 21 55 -10 40 -55 84 -55 53z m40 -68 c0
-26 -24 -43 -99 -69 -48 -17 -93 -54 -103 -85 -3 -9 -10 -8 -26 2 -19 12 -24
11 -39 -3 -16 -16 -16 -19 1 -37 17 -19 17 -20 -8 -36 -37 -25 -58 -15 -80 36
-24 60 -16 107 27 153 39 41 88 56 190 56 62 0 80 4 95 19 15 16 18 17 30 3 6
-9 12 -26 12 -39z m-45 -92 c3 -10 5 -43 4 -73 -1 -30 1 -60 5 -67 4 -6 0 -14
-8 -17 -9 -3 -16 -13 -16 -20 0 -12 -4 -12 -20 -4 -12 7 -20 7 -20 1 0 -5 9
-13 20 -16 42 -13 10 -65 -41 -65 -39 0 -110 30 -102 43 7 12 -14 1 -38 -20
-27 -23 -69 2 -69 42 0 29 4 32 42 41 49 10 60 34 32 65 -16 18 -16 19 10 19
22 0 28 -6 33 -32 l6 -32 13 43 c16 53 30 70 79 92 51 23 62 23 70 0z m-310
-223 c30 -13 59 -57 74 -112 9 -33 6 -52 -19 -130 -16 -50 -34 -120 -40 -156
-13 -69 -6 -185 12 -225 11 -26 101 -101 188 -160 30 -20 56 -38 58 -40 2 -2
-4 -15 -14 -29 -21 -33 -28 -31 -159 42 -125 70 -218 129 -227 146 -11 19 -28
205 -30 325 l-2 106 -5 -80 c-3 -44 -2 -134 3 -200 11 -130 11 -239 1 -323 -5
-40 -12 -56 -30 -68 -51 -33 -284 -27 -411 11 -95 28 -164 90 -164 147 1 32
16 49 82 92 68 43 93 74 148 186 23 47 48 92 56 101 8 8 14 20 14 25 0 5 21
24 45 43 25 18 45 40 45 47 0 8 6 14 13 14 8 0 24 11 37 25 13 14 20 25 16 25
-4 0 9 14 29 31 20 18 34 34 32 36 -6 5 52 63 63 63 4 0 14 7 21 17 18 21 87
52 116 53 12 0 34 -5 48 -12z m40 -430 c-5 -35 -10 -57 -13 -50 -5 17 8 125
15 118 3 -2 2 -33 -2 -68z m-8 -90 c-3 -8 -6 -5 -6 6 -1 11 2 17 5 13 3 -3 4
-12 1 -19z m57 -136 c70 -61 200 -147 221 -145 20 3 20 3 0 -6 -26 -11 -40 -4
-158 87 -95 73 -118 97 -116 124 0 7 4 4 9 -8 4 -11 24 -35 44 -52z m280 -203
c-2 -4 10 -12 27 -20 36 -14 69 -62 69 -99 l-1 -25 -15 25 -15 25 4 -28 c2
-15 0 -30 -4 -33 -5 -3 -9 2 -9 10 0 8 -4 17 -9 20 -4 3 -6 -6 -3 -21 3 -18 1
-24 -7 -19 -6 4 -11 14 -11 22 0 8 -4 12 -10 9 -5 -3 -7 0 -4 8 5 13 -41 67
-57 67 -16 0 -9 21 15 45 20 20 22 26 10 36 -8 6 -14 17 -14 23 0 6 9 0 19
-14 11 -13 18 -27 15 -31z m-38 27 c6 -16 -32 -96 -45 -96 -17 0 -31 28 -25
46 8 23 44 64 56 64 5 0 11 -6 14 -14z m-1032 -31 c10 -8 49 -24 85 -35 36
-12 72 -24 80 -26 30 -10 -118 -138 -258 -223 -46 -28 -88 -51 -94 -51 -5 0
-31 24 -58 53 l-48 52 29 8 c21 5 59 42 127 122 54 63 103 114 108 114 6 0 19
-6 29 -14z m601 -36 c56 -76 65 -94 65 -129 -1 -57 -32 -133 -60 -147 -27 -14
-186 -18 -194 -5 -2 4 4 34 15 66 28 82 11 123 -64 155 l-37 16 77 1 c90 0
139 20 149 59 3 14 9 25 13 25 3 0 20 -19 36 -41z m-206 -246 c-13 -26 -25
-51 -26 -54 -2 -4 17 -4 42 -2 50 6 54 0 30 -52 l-14 -30 6 33 c5 32 5 32 -36
32 -50 0 -52 11 -14 79 35 62 42 58 12 -6z m-752 31 c-3 -3 -12 -4 -19 -1 -8
3 -5 6 6 6 11 1 17 -2 13 -5z m-418 -38 c11 -13 10 -18 -4 -32 -12 -12 -15
-26 -10 -51 3 -19 2 -33 -4 -33 -5 0 -35 -36 -65 -80 -54 -76 -76 -96 -76 -67
0 13 95 271 107 290 5 9 35 -6 52 -27z m374 27 c-7 -2 -19 -2 -25 0 -7 3 -2 5
12 5 14 0 19 -2 13 -5z m149 -37 l37 -44 -107 -23 c-88 -19 -133 -23 -259 -22
-169 1 -193 6 -193 34 0 27 30 36 167 49 65 6 159 19 208 29 50 10 95 19 100
20 6 0 27 -19 47 -43z m-199 27 c-7 -2 -21 -2 -30 0 -10 3 -4 5 12 5 17 0 24
-2 18 -5z m-75 -10 c-10 -2 -26 -2 -35 0 -10 3 -2 5 17 5 19 0 27 -2 18 -5z
m436 -34 c-52 -55 -82 -67 -198 -78 -147 -15 -182 -12 -71 5 112 17 209 47
255 79 47 32 49 31 14 -6z m691 -41 c-11 -36 -102 -204 -157 -290 -43 -68 -54
-78 -79 -78 -16 0 -29 1 -29 3 1 9 73 204 94 257 58 141 48 130 117 130 58 0
60 -1 54 -22z m-1142 -55 c-29 -2 -78 -2 -110 0 -32 2 -8 3 52 3 61 0 87 -1
58 -3z m1089 -353 c54 -12 100 -26 103 -31 4 -5 -69 -9 -179 -9 -198 0 -203 1
-170 48 8 12 20 19 26 16 16 -10 69 -7 81 5 6 6 17 7 26 2 9 -5 60 -18 113
-31z m-24 -67 c-42 -2 -114 -2 -160 0 -46 1 -11 3 77 3 88 0 125 -2 83 -3z"/>
<path d="M6828 3613 c7 -3 16 -2 19 1 4 3 -2 6 -13 5 -11 0 -14 -3 -6 -6z"/>
<path d="M112 3635 c0 -16 2 -22 5 -12 2 9 2 23 0 30 -3 6 -5 -1 -5 -18z"/>
<path d="M152 3630 c0 -19 2 -27 5 -17 2 9 2 25 0 35 -3 9 -5 1 -5 -18z"/>
<path d="M175 3639 c-4 -6 -5 -12 -2 -15 2 -3 7 2 10 11 7 17 1 20 -8 4z"/>
<path d="M212 3630 c0 -14 2 -19 5 -12 2 6 2 18 0 25 -3 6 -5 1 -5 -13z"/>
<path d="M2100 3491 c-5 -11 -10 -63 -10 -116 0 -138 -3 -135 138 -135 79 0
122 4 130 12 15 15 16 211 2 239 -10 17 -22 19 -130 19 -108 0 -120 -2 -130
-19z m185 -116 l0 -50 -52 -3 -53 -3 0 56 0 56 53 -3 52 -3 0 -50z"/>
<path d="M2213 3393 c16 -16 18 -16 34 0 16 16 15 17 -17 17 -32 0 -33 -1 -17
-17z"/>
<path d="M2190 3366 c0 -24 4 -26 40 -26 37 0 40 2 40 27 0 25 -1 25 -18 10
-16 -15 -20 -15 -40 -1 -21 14 -22 14 -22 -10z"/>
<path d="M242 3375 c0 -16 2 -22 5 -12 2 9 2 23 0 30 -3 6 -5 -1 -5 -18z"/>
<path d="M322 3375 c0 -16 2 -22 5 -12 2 9 2 23 0 30 -3 6 -5 -1 -5 -18z"/>
<path d="M264 3375 c-8 -19 4 -35 24 -34 14 1 14 2 -1 6 -13 3 -17 11 -14 24
6 22 -1 26 -9 4z"/>
<path d="M296 3377 c3 -10 9 -15 12 -12 3 3 0 11 -7 18 -10 9 -11 8 -5 -6z"/>
<path d="M408 3363 c5 -21 7 -23 10 -9 2 10 0 22 -6 28 -6 6 -7 0 -4 -19z"/>
<path d="M604 3382 c5 -8 -1 -12 -16 -13 -18 -1 -19 -2 -4 -6 23 -6 43 12 25
22 -8 5 -10 4 -5 -3z"/>
<path d="M527 3349 c7 -7 15 -10 18 -7 3 3 -2 9 -12 12 -14 6 -15 5 -6 -5z"/>
<path d="M112 3080 c0 -19 2 -27 5 -17 2 9 2 25 0 35 -3 9 -5 1 -5 -18z"/>
<path d="M532 3080 c0 -19 2 -27 5 -17 2 9 2 25 0 35 -3 9 -5 1 -5 -18z"/>
<path d="M192 3070 c0 -14 2 -19 5 -12 2 6 2 18 0 25 -3 6 -5 1 -5 -13z"/>
<path d="M472 3070 c0 -14 2 -19 5 -12 2 6 2 18 0 25 -3 6 -5 1 -5 -13z"/>
<path d="M2107 2942 c-13 -15 -17 -39 -17 -116 0 -139 -3 -136 138 -136 79 0
122 4 130 12 15 15 16 211 2 239 -10 17 -22 19 -124 19 -97 0 -115 -3 -129
-18z m181 -119 l-3 -48 -52 -3 -53 -3 0 50 0 51 56 0 55 0 -3 -47z"/>
<path d="M2213 2843 c16 -16 18 -16 34 0 16 16 15 17 -17 17 -32 0 -33 -1 -17
-17z"/>
<path d="M2190 2812 c0 -31 2 -32 40 -32 38 0 40 1 40 32 0 30 0 31 -20 13
-19 -17 -21 -17 -40 0 -20 18 -20 17 -20 -13z"/>
<path d="M712 2820 c0 -19 2 -27 5 -17 2 9 2 25 0 35 -3 9 -5 1 -5 -18z"/>
<path d="M322 2826 c7 -8 15 -12 17 -11 5 6 -10 25 -20 25 -5 0 -4 -6 3 -14z"/>
<path d="M820 2836 c0 -2 7 -7 16 -10 8 -3 12 -2 9 4 -6 10 -25 14 -25 6z"/>
<path d="M928 2813 c5 -21 7 -23 10 -9 2 10 0 22 -6 28 -6 6 -7 0 -4 -19z"/>
<path d="M365 2821 c-3 -5 -2 -12 3 -15 5 -3 9 1 9 9 0 17 -3 19 -12 6z"/>
<path d="M542 2810 c0 -14 2 -19 5 -12 2 6 2 18 0 25 -3 6 -5 1 -5 -13z"/>
<path d="M692 2810 c0 -14 2 -19 5 -12 2 6 2 18 0 25 -3 6 -5 1 -5 -13z"/>
<path d="M750 2816 c0 -8 4 -17 9 -20 5 -4 7 3 4 14 -6 23 -13 26 -13 6z"/>
<path d="M862 2810 c0 -14 2 -19 5 -12 2 6 2 18 0 25 -3 6 -5 1 -5 -13z"/>
<path d="M480 2811 c0 -6 4 -13 10 -16 6 -3 7 1 4 9 -7 18 -14 21 -14 7z"/>
<path d="M611 2804 c0 -11 3 -14 6 -6 3 7 2 16 -1 19 -3 4 -6 -2 -5 -13z"/>
<path d="M112 2490 c0 -19 2 -27 5 -17 2 9 2 25 0 35 -3 9 -5 1 -5 -18z"/>
<path d="M202 2480 c0 -14 2 -19 5 -12 2 6 2 18 0 25 -3 6 -5 1 -5 -13z"/>
<path d="M2106 2338 c-12 -17 -16 -48 -16 -120 0 -134 4 -138 143 -138 136 0
137 1 137 143 0 138 1 137 -140 137 -101 0 -110 -2 -124 -22z m148 -71 c11 -8
20 -31 23 -61 l6 -47 -49 3 c-38 2 -50 7 -52 21 -5 27 6 63 24 81 19 19 25 20
48 3z"/>
<path d="M2210 2246 c0 -11 9 -16 26 -16 31 0 28 23 -4 28 -15 2 -22 -2 -22
-12z"/>
<path d="M2190 2200 c0 -17 7 -20 40 -20 33 0 40 3 40 20 0 17 -7 20 -40 20
-33 0 -40 -3 -40 -20z m50 0 c0 -5 -4 -10 -10 -10 -5 0 -10 5 -10 10 0 6 5 10
10 10 6 0 10 -4 10 -10z"/>
<path d="M1092 2220 c0 -19 2 -27 5 -17 2 9 2 25 0 35 -3 9 -5 1 -5 -18z"/>
<path d="M322 2215 c0 -16 2 -22 5 -12 2 9 2 23 0 30 -3 6 -5 -1 -5 -18z"/>
<path d="M262 2210 c0 -14 2 -19 5 -12 2 6 2 18 0 25 -3 6 -5 1 -5 -13z"/>
<path d="M602 2210 c0 -14 2 -19 5 -12 2 6 2 18 0 25 -3 6 -5 1 -5 -13z"/>
<path d="M682 2200 c0 -19 2 -27 5 -17 2 9 2 25 0 35 -3 9 -5 1 -5 -18z"/>
<path d="M721 2214 c0 -11 3 -14 6 -6 3 7 2 16 -1 19 -3 4 -6 -2 -5 -13z"/>
<path d="M1001 2214 c0 -11 3 -14 6 -6 3 7 2 16 -1 19 -3 4 -6 -2 -5 -13z"/>
<path d="M1022 2210 c0 -14 2 -19 5 -12 2 6 2 18 0 25 -3 6 -5 1 -5 -13z"/>
<path d="M1050 2211 c0 -6 4 -13 10 -16 6 -3 7 1 4 9 -7 18 -14 21 -14 7z"/>
<path d="M2106 1968 c-12 -17 -16 -48 -16 -118 0 -138 2 -140 139 -140 141 0
141 0 141 143 0 138 1 137 -140 137 -101 0 -110 -2 -124 -22z m148 -71 c11 -8
20 -31 23 -61 l6 -47 -49 3 c-38 2 -50 7 -52 21 -5 27 6 63 24 81 19 19 25 20
48 3z"/>
<path d="M2210 1876 c0 -11 9 -16 26 -16 31 0 28 23 -4 28 -15 2 -22 -2 -22
-12z"/>
<path d="M2190 1830 c0 -17 7 -20 40 -20 33 0 40 3 40 20 0 17 -7 20 -40 20
-33 0 -40 -3 -40 -20z m50 0 c0 -5 -4 -10 -10 -10 -5 0 -10 5 -10 10 0 6 5 10
10 10 6 0 10 -4 10 -10z"/>
<path d="M1152 1850 c0 -19 2 -27 5 -17 2 9 2 25 0 35 -3 9 -5 1 -5 -18z"/>
<path d="M502 1845 c0 -16 2 -22 5 -12 2 9 2 23 0 30 -3 6 -5 -1 -5 -18z"/>
<path d="M641 1844 c0 -11 3 -14 6 -6 3 7 2 16 -1 19 -3 4 -6 -2 -5 -13z"/>
<path d="M661 1844 c0 -11 3 -14 6 -6 3 7 2 16 -1 19 -3 4 -6 -2 -5 -13z"/>
<path d="M742 1830 c0 -19 2 -27 5 -17 2 9 2 25 0 35 -3 9 -5 1 -5 -18z"/>
<path d="M781 1844 c0 -11 3 -14 6 -6 3 7 2 16 -1 19 -3 4 -6 -2 -5 -13z"/>
<path d="M837 1840 c-3 -11 -1 -20 4 -20 5 0 9 9 9 20 0 11 -2 20 -4 20 -2 0
-6 -9 -9 -20z"/>
<path d="M1082 1840 c0 -14 2 -19 5 -12 2 6 2 18 0 25 -3 6 -5 1 -5 -13z"/>
<path d="M220 1846 c0 -2 7 -7 16 -10 8 -3 12 -2 9 4 -6 10 -25 14 -25 6z"/>
<path d="M600 1841 c0 -6 4 -13 10 -16 6 -3 7 1 4 9 -7 18 -14 21 -14 7z"/>
<path d="M6880 1815 c-94 -31 -116 -35 -217 -35 -64 0 -114 -4 -118 -10 -4 -6
36 -10 112 -10 110 0 124 2 211 35 84 32 142 44 142 29 0 -3 -5 -14 -10 -25
-13 -23 -7 -25 14 -3 9 8 16 24 16 35 0 27 -27 24 -150 -16z"/>
<path d="M5765 1750 c33 -16 90 -36 127 -45 65 -16 66 -17 47 -36 -34 -34 -19
-84 31 -102 8 -3 -20 -6 -63 -6 -49 -1 -76 -5 -72 -11 4 -6 180 -10 495 -10
315 0 491 4 495 10 4 6 -18 10 -57 11 -52 0 -59 2 -38 10 13 6 28 15 32 22 15
23 8 66 -12 80 -20 14 -19 15 17 19 40 6 207 67 201 74 -3 2 -48 -12 -102 -31
l-97 -35 -402 0 c-434 0 -479 4 -591 54 -78 35 -87 32 -11 -4z m887 -76 c-39
-27 -24 -88 28 -107 8 -3 -142 -6 -335 -6 -310 0 -346 1 -317 14 27 12 32 19
32 49 0 25 -6 39 -22 50 -21 15 6 16 307 16 301 0 328 -1 307 -16z m-622 -18
c35 -43 -28 -99 -70 -61 -36 33 -19 75 31 75 15 0 32 -7 39 -14z m710 -1 c17
-20 5 -62 -20 -70 -31 -10 -59 4 -66 31 -8 31 11 54 46 54 15 0 33 -7 40 -15z"/>
<path d="M5977 1644 c-13 -13 -7 -24 14 -24 11 0 19 5 17 12 -5 14 -22 21 -31
12z"/>
<path d="M6684 1639 c-10 -17 13 -36 27 -22 12 12 4 33 -11 33 -5 0 -12 -5
-16 -11z"/>
<path d="M1691 1603 c1 -22 2 -23 6 -8 3 11 10 23 17 27 7 5 5 8 -6 8 -13 0
-18 -7 -17 -27z"/>
<path d="M2312 1605 c0 -16 2 -22 5 -12 2 9 2 23 0 30 -3 6 -5 -1 -5 -18z"/>
<path d="M2342 1616 c7 -8 15 -12 17 -11 5 6 -10 25 -20 25 -5 0 -4 -6 3 -14z"/>
<path d="M1735 1611 c-3 -6 0 -8 9 -5 8 3 16 -1 19 -10 4 -14 5 -14 3 0 -1 20
-21 30 -31 15z"/>
<path d="M1865 1611 c-3 -6 0 -8 9 -5 8 3 16 -1 19 -10 4 -14 5 -14 3 0 -1 20
-21 30 -31 15z"/>
<path d="M1912 1600 c0 -14 2 -19 5 -12 2 6 2 18 0 25 -3 6 -5 1 -5 -13z"/>
<path d="M2003 1605 c-3 -9 -3 -19 1 -22 3 -4 6 2 6 11 0 12 5 16 16 12 8 -3
12 -2 9 4 -9 15 -25 12 -32 -5z"/>
<path d="M2095 1611 c-6 -11 13 -26 22 -17 4 3 1 6 -6 6 -7 0 -9 5 -6 10 3 6
4 10 1 10 -3 0 -7 -4 -11 -9z"/>
<path d="M2205 1611 c-3 -6 0 -8 9 -5 8 3 16 -1 19 -10 4 -14 5 -14 3 0 -1 20
-21 30 -31 15z"/>
<path d="M2253 1605 c-3 -9 -3 -18 -1 -21 3 -3 8 4 11 16 6 23 -1 27 -10 5z"/>
<path d="M1842 1585 c0 -16 2 -22 5 -12 2 9 2 23 0 30 -3 6 -5 -1 -5 -18z"/>
<path d="M1815 1571 c-3 -5 -2 -12 3 -15 5 -3 9 1 9 9 0 17 -3 19 -12 6z"/>
<path d="M5340 1550 c0 -6 78 -10 215 -10 137 0 215 4 215 10 0 6 -78 10 -215
10 -137 0 -215 -4 -215 -10z"/>
<path d="M6885 1550 c-4 -7 68 -10 209 -10 137 0 216 4 216 10 0 6 -76 10
-209 10 -129 0 -212 -4 -216 -10z"/>
<path d="M121 1366 c-8 -9 -11 -54 -9 -132 l3 -119 1114 -3 c815 -1 1117 1
1127 9 17 14 20 210 4 240 -10 19 -33 19 -1119 19 -935 0 -1110 -2 -1120 -14z
m956 -138 c-2 -13 -4 -5 -4 17 -1 22 1 32 4 23 2 -10 2 -28 0 -40z m-17 32 c0
-5 -7 -6 -17 -3 -11 4 -14 3 -9 -5 4 -7 3 -12 -3 -12 -13 0 -22 15 -14 24 10
10 43 7 43 -4z m80 -35 c0 -30 -3 -35 -22 -34 -22 0 -22 1 -3 9 16 7 17 9 3 9
-37 2 -35 51 2 51 16 0 20 -6 20 -35z m59 8 l0 -28 -11 25 c-11 25 -11 25 -15
3 -6 -31 -23 -29 -23 2 0 20 5 25 25 25 21 0 25 -5 24 -27z m54 5 c4 -23 4
-23 15 2 l11 25 0 -28 c1 -24 -3 -28 -21 -25 -23 3 -41 48 -19 48 5 0 11 -10
14 -22z m87 -3 c0 -16 -6 -25 -15 -25 -8 0 -15 -4 -15 -10 0 -5 -4 -10 -10
-10 -5 0 -10 16 -10 35 0 31 3 35 25 35 20 0 25 -5 25 -25z m-280 -10 c0 -8
-9 -15 -20 -15 -11 0 -20 5 -20 11 0 5 5 7 10 4 6 -3 10 -1 10 4 0 6 5 11 10
11 6 0 10 -7 10 -15z"/>
<path d="M1110 1236 c0 -9 5 -16 10 -16 6 0 10 4 10 9 0 6 -4 13 -10 16 -5 3
-10 -1 -10 -9z"/>
<path d="M1310 1236 c0 -9 5 -16 10 -16 6 0 10 4 10 9 0 6 -4 13 -10 16 -5 3
-10 -1 -10 -9z"/>
<path d="M682 693 c300 -2 795 -2 1100 0 304 1 58 2 -547 2 -605 0 -854 -1
-553 -2z"/>
<path d="M1022 560 c0 -19 2 -27 5 -17 2 9 2 25 0 35 -3 9 -5 1 -5 -18z"/>
<path d="M1060 550 c0 -13 7 -20 20 -20 13 0 20 7 20 20 0 13 -7 20 -20 20
-13 0 -20 -7 -20 -20z m30 0 c0 -5 -4 -10 -10 -10 -5 0 -10 5 -10 10 0 6 5 10
10 10 6 0 10 -4 10 -10z"/>
<path d="M1114 559 c-3 -6 -2 -15 4 -21 6 -6 8 -17 5 -25 -4 -11 0 -14 13 -11
13 2 20 13 22 36 3 26 0 32 -17 32 -11 0 -23 -5 -27 -11z m34 -24 c0 -14 -5
-25 -10 -25 -5 0 -7 4 -3 9 3 5 1 12 -5 16 -6 4 -8 11 -5 16 11 17 23 9 23
-16z"/>
<path d="M1182 550 c0 -14 2 -19 5 -12 2 6 2 18 0 25 -3 6 -5 1 -5 -13z"/>
<path d="M1201 548 c1 -17 3 -18 6 -5 5 21 23 23 23 2 0 -8 5 -15 11 -15 20 0
4 35 -19 38 -18 3 -22 -1 -21 -20z"/>
<path d="M1281 548 c1 -17 2 -19 6 -5 2 9 8 17 13 17 5 0 11 -8 13 -17 4 -14
5 -12 6 5 1 16 -5 22 -19 22 -14 0 -20 -6 -19 -22z"/>
<path d="M1340 550 c0 -13 7 -20 20 -20 13 0 20 7 20 20 0 13 -7 20 -20 20
-13 0 -20 -7 -20 -20z m30 0 c0 -5 -4 -10 -10 -10 -5 0 -10 5 -10 10 0 6 5 10
10 10 6 0 10 -4 10 -10z"/>
<path d="M1391 565 c0 -5 4 -17 10 -25 9 -12 12 -13 16 -1 5 11 7 11 14 0 8
-12 11 -11 19 1 5 8 10 20 10 25 0 6 -4 4 -9 -4 -6 -9 -10 -10 -16 -2 -5 9
-10 9 -20 1 -10 -8 -14 -7 -18 2 -3 7 -6 9 -6 3z"/>
</g>
</svg>
